<svg xmlns="http://www.w3.org/2000/svg" xmlns:xlink="http://www.w3.org/1999/xlink" width="22.096" height="17.028" viewBox="0 0 22.096 17.028">
  <defs>
    <clipPath id="clip-path">
      <rect x="21" y="14" width="22.096" height="17.028" fill="none"/>
    </clipPath>
  </defs>
  <g id="mail" transform="translate(-21 -14)" clip-path="url(#clip-path)" style="isolation: isolate">
    <g id="noun-email-5362837" transform="translate(-48.531 -48.736)">
      <path id="Tracé_126" data-name="Tracé 126" d="M98.248,71.743a.741.741,0,0,0,.357-.122l8.865-6.266a2.367,2.367,0,0,0-2.186-1.481H91.114a2.367,2.367,0,0,0-2.186,1.478l8.9,6.254a1.041,1.041,0,0,0,.415.136Z" transform="translate(-17.743 0)" fill="#09333f"/>
      <path id="Tracé_127" data-name="Tracé 127" d="M95.231,188.719a3.049,3.049,0,0,1-1.737.567,3.36,3.36,0,0,1-1.755-.554L84,183.3v8.747a2.369,2.369,0,0,0,2.362,2.362h14.169a2.369,2.369,0,0,0,2.362-2.362V183.3Z" transform="translate(-12.99 -115.182)" fill="#09333f"/>
      <g id="Groupe_121" data-name="Groupe 121" transform="translate(70.562 83.737)">
        <path id="Tracé_128" data-name="Tracé 128" d="M2.008-20.083a.472.472,0,0,1-.108.04.484.484,0,0,1-.117.014.4.4,0,0,1-.287-.1.362.362,0,0,1-.106-.275A.361.361,0,0,1,1.5-20.68a.4.4,0,0,1,.287-.1.484.484,0,0,1,.117.014.472.472,0,0,1,.108.04v.15a.426.426,0,0,0-.1-.052.339.339,0,0,0-.107-.017.2.2,0,0,0-.157.064.255.255,0,0,0-.057.176.256.256,0,0,0,.057.176.2.2,0,0,0,.157.064.346.346,0,0,0,.107-.016.415.415,0,0,0,.1-.052Z" transform="translate(-1.391 20.781)" fill="#09333f"/>
      </g>
      <g id="Groupe_122" data-name="Groupe 122" transform="translate(71.326 83.918)">
        <path id="Tracé_129" data-name="Tracé 129" d="M2.763-15.526a.24.24,0,0,0-.046-.016.19.19,0,0,0-.045-.006.127.127,0,0,0-.1.043.185.185,0,0,0-.036.123v.251H2.359v-.544h.174v.089a.221.221,0,0,1,.077-.078.207.207,0,0,1,.1-.025h.019l.03,0Z" transform="translate(-2.359 15.687)" fill="#09333f"/>
      </g>
      <g id="Groupe_123" data-name="Groupe 123" transform="translate(71.775 83.918)">
        <path id="Tracé_130" data-name="Tracé 130" d="M1.787-15.4v.05H1.38a.129.129,0,0,0,.044.092.164.164,0,0,0,.106.031.409.409,0,0,0,.112-.016.593.593,0,0,0,.118-.049v.134a.733.733,0,0,1-.123.035.639.639,0,0,1-.123.012.328.328,0,0,1-.23-.075A.271.271,0,0,1,1.2-15.4a.274.274,0,0,1,.08-.209.307.307,0,0,1,.221-.077.277.277,0,0,1,.205.078.279.279,0,0,1,.077.206Zm-.179-.058a.11.11,0,0,0-.029-.079.1.1,0,0,0-.075-.031.118.118,0,0,0-.082.028.13.13,0,0,0-.039.082Z" transform="translate(-1.203 15.688)" fill="#09333f"/>
      </g>
      <g id="Groupe_124" data-name="Groupe 124" transform="translate(72.45 83.918)">
        <path id="Tracé_131" data-name="Tracé 131" d="M1.488-15.375a.15.15,0,0,0-.082.018.061.061,0,0,0-.027.054.065.065,0,0,0,.022.052.093.093,0,0,0,.061.018.11.11,0,0,0,.083-.035.123.123,0,0,0,.034-.088v-.02Zm.265-.065v.31H1.578v-.08a.225.225,0,0,1-.079.072.235.235,0,0,1-.107.022.193.193,0,0,1-.137-.049.167.167,0,0,1-.053-.128.157.157,0,0,1,.065-.14.374.374,0,0,1,.207-.045h.1v-.014a.064.064,0,0,0-.033-.06.206.206,0,0,0-.1-.019.467.467,0,0,0-.1.011.36.36,0,0,0-.089.033v-.133a1.058,1.058,0,0,1,.112-.021.912.912,0,0,1,.113-.007.314.314,0,0,1,.212.058.24.24,0,0,1,.065.189Z" transform="translate(-1.203 15.688)" fill="#09333f"/>
      </g>
      <g id="Groupe_125" data-name="Groupe 125" transform="translate(73.091 83.777)">
        <path id="Tracé_132" data-name="Tracé 132" d="M.635-19.656v.154H.814v.124H.635v.231A.067.067,0,0,0,.65-19.1a.093.093,0,0,0,.059.013H.8v.124H.65A.2.2,0,0,1,.5-19a.2.2,0,0,1-.043-.146v-.231H.375V-19.5H.461v-.154Z" transform="translate(-0.375 19.656)" fill="#09333f"/>
      </g>
      <g id="Groupe_126" data-name="Groupe 126" transform="translate(73.596 83.918)">
        <path id="Tracé_133" data-name="Tracé 133" d="M1.787-15.4v.05H1.38a.129.129,0,0,0,.044.092.164.164,0,0,0,.106.031.409.409,0,0,0,.112-.016.593.593,0,0,0,.118-.049v.134a.733.733,0,0,1-.123.035.639.639,0,0,1-.123.012.328.328,0,0,1-.23-.075A.271.271,0,0,1,1.2-15.4a.274.274,0,0,1,.08-.209.307.307,0,0,1,.221-.077.277.277,0,0,1,.205.078.279.279,0,0,1,.077.206Zm-.179-.058a.11.11,0,0,0-.029-.079.1.1,0,0,0-.075-.031.118.118,0,0,0-.082.028.13.13,0,0,0-.039.082Z" transform="translate(-1.203 15.688)" fill="#09333f"/>
      </g>
      <g id="Groupe_127" data-name="Groupe 127" transform="translate(74.273 83.719)">
        <path id="Tracé_134" data-name="Tracé 134" d="M1.674-20.99v-.291h.175v.756H1.674V-20.6a.229.229,0,0,1-.079.07.219.219,0,0,1-.1.022.2.2,0,0,1-.165-.08.316.316,0,0,1-.064-.205A.317.317,0,0,1,1.33-21a.2.2,0,0,1,.165-.08.212.212,0,0,1,.1.023.241.241,0,0,1,.079.07Zm-.114.352a.1.1,0,0,0,.085-.041.2.2,0,0,0,.029-.119.2.2,0,0,0-.029-.118.1.1,0,0,0-.085-.041.1.1,0,0,0-.085.041.2.2,0,0,0-.029.118.2.2,0,0,0,.029.119A.1.1,0,0,0,1.56-20.637Z" transform="translate(-1.266 21.281)" fill="#09333f"/>
      </g>
      <g id="Groupe_128" data-name="Groupe 128" transform="translate(75.37 83.719)">
        <path id="Tracé_135" data-name="Tracé 135" d="M2.648-20.637a.1.1,0,0,0,.085-.041.2.2,0,0,0,.029-.119.2.2,0,0,0-.029-.118.1.1,0,0,0-.085-.041.1.1,0,0,0-.086.041.2.2,0,0,0-.029.118.2.2,0,0,0,.029.118.1.1,0,0,0,.086.041Zm-.115-.352a.246.246,0,0,1,.079-.07.215.215,0,0,1,.1-.023.2.2,0,0,1,.165.08.318.318,0,0,1,.064.206.317.317,0,0,1-.064.205.2.2,0,0,1-.165.08.22.22,0,0,1-.1-.022.24.24,0,0,1-.079-.07v.079H2.359v-.756h.174Z" transform="translate(-2.359 21.281)" fill="#09333f"/>
      </g>
      <g id="Groupe_129" data-name="Groupe 129" transform="translate(76.01 83.931)">
        <path id="Tracé_136" data-name="Tracé 136" d="M.344-15.312H.517l.146.369.124-.369H.962l-.229.6a.29.29,0,0,1-.08.127.189.189,0,0,1-.121.037h-.1v-.114H.485a.112.112,0,0,0,.064-.014.091.091,0,0,0,.032-.05l0-.015Z" transform="translate(-0.344 15.312)" fill="#09333f"/>
      </g>
      <g id="Groupe_130" data-name="Groupe 130" transform="translate(77.076 83.719)">
        <path id="Tracé_137" data-name="Tracé 137" d="M2.906-20.857v.331H2.731v-.252a.944.944,0,0,0,0-.1.1.1,0,0,0-.011-.039.071.071,0,0,0-.028-.026.082.082,0,0,0-.039-.009.1.1,0,0,0-.085.042.19.19,0,0,0-.031.116v.267H2.359v-.756h.174v.291a.278.278,0,0,1,.083-.07.211.211,0,0,1,.1-.023.176.176,0,0,1,.143.058.254.254,0,0,1,.049.168Z" transform="translate(-2.359 21.281)" fill="#09333f"/>
      </g>
      <g id="Groupe_131" data-name="Groupe 131" transform="translate(77.742 83.918)">
        <path id="Tracé_138" data-name="Tracé 138" d="M1.787-15.4v.05H1.38a.129.129,0,0,0,.044.092.164.164,0,0,0,.106.031.409.409,0,0,0,.112-.016.593.593,0,0,0,.118-.049v.134a.733.733,0,0,1-.123.035.639.639,0,0,1-.123.012.328.328,0,0,1-.23-.075A.271.271,0,0,1,1.2-15.4a.274.274,0,0,1,.08-.209.307.307,0,0,1,.221-.077.277.277,0,0,1,.205.078.279.279,0,0,1,.077.206Zm-.179-.058a.11.11,0,0,0-.029-.079.1.1,0,0,0-.075-.031.118.118,0,0,0-.082.028.13.13,0,0,0-.039.082Z" transform="translate(-1.203 15.688)" fill="#09333f"/>
      </g>
      <g id="Groupe_132" data-name="Groupe 132" transform="translate(78.458 83.719)">
        <path id="Tracé_139" data-name="Tracé 139" d="M2.359-21.069h.174v.544H2.359Zm0-.212h.174v.142H2.359Z" transform="translate(-2.359 21.281)" fill="#09333f"/>
      </g>
      <g id="Groupe_133" data-name="Groupe 133" transform="translate(78.767 83.918)">
        <path id="Tracé_140" data-name="Tracé 140" d="M1.909-15.657v.132A.642.642,0,0,0,1.8-15.56a.452.452,0,0,0-.1-.012.173.173,0,0,0-.074.012.04.04,0,0,0-.024.038.035.035,0,0,0,.018.032.173.173,0,0,0,.065.017l.031,0a.372.372,0,0,1,.18.056.151.151,0,0,1,.046.122.148.148,0,0,1-.064.131.342.342,0,0,1-.191.043.783.783,0,0,1-.112-.008.9.9,0,0,1-.118-.026v-.132a.485.485,0,0,0,.106.038.51.51,0,0,0,.112.012.165.165,0,0,0,.077-.014.046.046,0,0,0,.026-.042.038.038,0,0,0-.018-.034.185.185,0,0,0-.07-.018l-.031,0A.317.317,0,0,1,1.5-15.4a.147.147,0,0,1-.047-.119.146.146,0,0,1,.059-.128.317.317,0,0,1,.182-.042.7.7,0,0,1,.1.008,1.109,1.109,0,0,1,.115.023Z" transform="translate(-1.453 15.687)" fill="#09333f"/>
      </g>
      <g id="Groupe_134" data-name="Groupe 134" transform="translate(79.35 83.918)">
        <path id="Tracé_141" data-name="Tracé 141" d="M1.787-15.4v.05H1.38a.129.129,0,0,0,.044.092.164.164,0,0,0,.106.031.409.409,0,0,0,.112-.016.593.593,0,0,0,.118-.049v.134a.733.733,0,0,1-.123.035.639.639,0,0,1-.123.012.328.328,0,0,1-.23-.075A.271.271,0,0,1,1.2-15.4a.274.274,0,0,1,.08-.209.307.307,0,0,1,.221-.077.277.277,0,0,1,.205.078.279.279,0,0,1,.077.206Zm-.179-.058a.11.11,0,0,0-.029-.079.1.1,0,0,0-.075-.031.118.118,0,0,0-.082.028.13.13,0,0,0-.039.082Z" transform="translate(-1.203 15.688)" fill="#09333f"/>
      </g>
      <g id="Groupe_135" data-name="Groupe 135" transform="translate(80.065 83.918)">
        <path id="Tracé_142" data-name="Tracé 142" d="M2.906-15.461v.331H2.731v-.254a.93.93,0,0,0,0-.1.1.1,0,0,0-.011-.039.071.071,0,0,0-.028-.026.081.081,0,0,0-.039-.009.1.1,0,0,0-.085.042.19.19,0,0,0-.031.116v.267H2.359v-.544h.174v.079a.278.278,0,0,1,.083-.07.211.211,0,0,1,.1-.023.176.176,0,0,1,.143.058.254.254,0,0,1,.049.168Z" transform="translate(-2.359 15.687)" fill="#09333f"/>
      </g>
      <g id="Groupe_136" data-name="Groupe 136" transform="translate(70.531 84.714)">
        <path id="Tracé_143" data-name="Tracé 143" d="M.954-21.281v.114h-.1a.078.078,0,0,0-.052.013.061.061,0,0,0-.014.047v.038H.94v.124H.792v.419H.618v-.419H.531v-.124H.618v-.038a.165.165,0,0,1,.049-.132.231.231,0,0,1,.154-.043Z" transform="translate(-0.531 21.281)" fill="#09333f"/>
      </g>
      <g id="Groupe_137" data-name="Groupe 137" transform="translate(71.029 84.912)">
        <path id="Tracé_144" data-name="Tracé 144" d="M2.763-15.526a.24.24,0,0,0-.046-.016.19.19,0,0,0-.045-.006.127.127,0,0,0-.1.043.185.185,0,0,0-.036.123v.251H2.359v-.544h.174v.089a.221.221,0,0,1,.077-.078.207.207,0,0,1,.1-.025h.019l.03,0Z" transform="translate(-2.359 15.687)" fill="#09333f"/>
      </g>
      <g id="Groupe_138" data-name="Groupe 138" transform="translate(71.478 84.912)">
        <path id="Tracé_145" data-name="Tracé 145" d="M1.5-15.564a.1.1,0,0,0-.088.042.2.2,0,0,0-.031.12.2.2,0,0,0,.031.12.1.1,0,0,0,.088.041.1.1,0,0,0,.087-.041.2.2,0,0,0,.031-.12.2.2,0,0,0-.031-.12A.1.1,0,0,0,1.5-15.564Zm0-.124a.3.3,0,0,1,.219.076.277.277,0,0,1,.079.21.278.278,0,0,1-.079.21.3.3,0,0,1-.219.075.306.306,0,0,1-.22-.075A.276.276,0,0,1,1.2-15.4a.275.275,0,0,1,.079-.21A.305.305,0,0,1,1.5-15.688Z" transform="translate(-1.203 15.688)" fill="#09333f"/>
      </g>
      <g id="Groupe_139" data-name="Groupe 139" transform="translate(72.201 84.912)">
        <path id="Tracé_146" data-name="Tracé 146" d="M2.833-15.584a.236.236,0,0,1,.078-.077.194.194,0,0,1,.1-.027.176.176,0,0,1,.143.058.251.251,0,0,1,.049.168v.331H3.028v-.3s0-.011,0-.02a.155.155,0,0,0-.017-.083.06.06,0,0,0-.054-.026.087.087,0,0,0-.077.041.213.213,0,0,0-.028.118v.267H2.678v-.284a.27.27,0,0,0-.016-.116.059.059,0,0,0-.055-.026.087.087,0,0,0-.077.041A.21.21,0,0,0,2.5-15.4v.267H2.328v-.544H2.5v.079a.226.226,0,0,1,.073-.069.184.184,0,0,1,.092-.023.185.185,0,0,1,.1.027.171.171,0,0,1,.065.077Z" transform="translate(-2.328 15.688)" fill="#09333f"/>
      </g>
      <g id="Groupe_140" data-name="Groupe 140" transform="translate(73.514 84.772)">
        <path id="Tracé_147" data-name="Tracé 147" d="M.635-19.656v.154H.814v.124H.635v.231A.067.067,0,0,0,.65-19.1a.093.093,0,0,0,.059.013H.8v.124H.65A.2.2,0,0,1,.5-19a.2.2,0,0,1-.043-.146v-.231H.375V-19.5H.461v-.154Z" transform="translate(-0.375 19.656)" fill="#09333f"/>
      </g>
      <g id="Groupe_141" data-name="Groupe 141" transform="translate(74.06 84.714)">
        <path id="Tracé_148" data-name="Tracé 148" d="M2.906-20.857v.331H2.731v-.252a.944.944,0,0,0,0-.1.1.1,0,0,0-.011-.039.071.071,0,0,0-.028-.026.082.082,0,0,0-.039-.009.1.1,0,0,0-.085.042.19.19,0,0,0-.031.116v.267H2.359v-.756h.174v.291a.278.278,0,0,1,.083-.07.211.211,0,0,1,.1-.023.176.176,0,0,1,.143.058.254.254,0,0,1,.049.168Z" transform="translate(-2.359 21.281)" fill="#09333f"/>
      </g>
      <g id="Groupe_142" data-name="Groupe 142" transform="translate(74.727 84.912)">
        <path id="Tracé_149" data-name="Tracé 149" d="M1.787-15.4v.05H1.38a.129.129,0,0,0,.044.092.164.164,0,0,0,.106.031.409.409,0,0,0,.112-.016.593.593,0,0,0,.118-.049v.134a.733.733,0,0,1-.123.035.639.639,0,0,1-.123.012.328.328,0,0,1-.23-.075A.271.271,0,0,1,1.2-15.4a.274.274,0,0,1,.08-.209.307.307,0,0,1,.221-.077.277.277,0,0,1,.205.078.279.279,0,0,1,.077.206Zm-.179-.058a.11.11,0,0,0-.029-.079.1.1,0,0,0-.075-.031.118.118,0,0,0-.082.028.13.13,0,0,0-.039.082Z" transform="translate(-1.203 15.688)" fill="#09333f"/>
      </g>
      <g id="Groupe_143" data-name="Groupe 143" transform="translate(75.796 84.745)">
        <path id="Tracé_150" data-name="Tracé 150" d="M2.578-20.406h.209l.264.5v-.5h.177v.725H3.019l-.264-.5v.5H2.578Z" transform="translate(-2.578 20.406)" fill="#09333f"/>
      </g>
      <g id="Groupe_144" data-name="Groupe 144" transform="translate(76.58 84.912)">
        <path id="Tracé_151" data-name="Tracé 151" d="M1.5-15.564a.1.1,0,0,0-.088.042.2.2,0,0,0-.031.12.2.2,0,0,0,.031.12.1.1,0,0,0,.088.041.1.1,0,0,0,.087-.041.2.2,0,0,0,.031-.12.2.2,0,0,0-.031-.12A.1.1,0,0,0,1.5-15.564Zm0-.124a.3.3,0,0,1,.219.076.277.277,0,0,1,.079.21.278.278,0,0,1-.079.21.3.3,0,0,1-.219.075.306.306,0,0,1-.22-.075A.276.276,0,0,1,1.2-15.4a.275.275,0,0,1,.079-.21A.305.305,0,0,1,1.5-15.688Z" transform="translate(-1.203 15.688)" fill="#09333f"/>
      </g>
      <g id="Groupe_145" data-name="Groupe 145" transform="translate(77.298 84.926)">
        <path id="Tracé_152" data-name="Tracé 152" d="M2.188-14.981v-.332h.175v.054c0,.03,0,.067,0,.111s0,.074,0,.089a.934.934,0,0,0,0,.095.109.109,0,0,0,.012.042A.076.076,0,0,0,2.4-14.9a.084.084,0,0,0,.039.009.1.1,0,0,0,.085-.042.19.19,0,0,0,.031-.116v-.269h.174v.544H2.56v-.079a.273.273,0,0,1-.083.07.213.213,0,0,1-.1.022.178.178,0,0,1-.143-.058.251.251,0,0,1-.049-.168Z" transform="translate(-2.188 15.313)" fill="#09333f"/>
      </g>
      <g id="Groupe_146" data-name="Groupe 146" transform="translate(78.012 84.912)">
        <path id="Tracé_153" data-name="Tracé 153" d="M2.906-15.461v.331H2.731v-.254a.93.93,0,0,0,0-.1.1.1,0,0,0-.011-.039.071.071,0,0,0-.028-.026.081.081,0,0,0-.039-.009.1.1,0,0,0-.085.042.19.19,0,0,0-.031.116v.267H2.359v-.544h.174v.079a.278.278,0,0,1,.083-.07.211.211,0,0,1,.1-.023.176.176,0,0,1,.143.058.254.254,0,0,1,.049.168Z" transform="translate(-2.359 15.687)" fill="#09333f"/>
      </g>
      <g id="Groupe_147" data-name="Groupe 147" transform="translate(79.074 84.745)">
        <path id="Tracé_154" data-name="Tracé 154" d="M2.578-20.406h.31a.323.323,0,0,1,.212.062.214.214,0,0,1,.074.175.215.215,0,0,1-.074.175.323.323,0,0,1-.212.062H2.765v.251H2.578Zm.186.135v.2h.1a.121.121,0,0,0,.084-.027.1.1,0,0,0,.03-.075.094.094,0,0,0-.03-.075.123.123,0,0,0-.084-.026Z" transform="translate(-2.578 20.406)" fill="#09333f"/>
      </g>
      <g id="Groupe_148" data-name="Groupe 148" transform="translate(79.795 84.912)">
        <path id="Tracé_155" data-name="Tracé 155" d="M2.763-15.526a.24.24,0,0,0-.046-.016.19.19,0,0,0-.045-.006.127.127,0,0,0-.1.043.185.185,0,0,0-.036.123v.251H2.359v-.544h.174v.089a.221.221,0,0,1,.077-.078.207.207,0,0,1,.1-.025h.019l.03,0Z" transform="translate(-2.359 15.687)" fill="#09333f"/>
      </g>
      <g id="Groupe_149" data-name="Groupe 149" transform="translate(80.244 84.912)">
        <path id="Tracé_156" data-name="Tracé 156" d="M1.5-15.564a.1.1,0,0,0-.088.042.2.2,0,0,0-.031.12.2.2,0,0,0,.031.12.1.1,0,0,0,.088.041.1.1,0,0,0,.087-.041.2.2,0,0,0,.031-.12.2.2,0,0,0-.031-.12A.1.1,0,0,0,1.5-15.564Zm0-.124a.3.3,0,0,1,.219.076.277.277,0,0,1,.079.21.278.278,0,0,1-.079.21.3.3,0,0,1-.219.075.306.306,0,0,1-.22-.075A.276.276,0,0,1,1.2-15.4a.275.275,0,0,1,.079-.21A.305.305,0,0,1,1.5-15.688Z" transform="translate(-1.203 15.688)" fill="#09333f"/>
      </g>
      <g id="Groupe_150" data-name="Groupe 150" transform="translate(80.851 84.714)">
        <path id="Tracé_157" data-name="Tracé 157" d="M-.82-21.069h.174v.534a.24.24,0,0,1-.053.167.2.2,0,0,1-.152.058H-.937v-.114h.031a.085.085,0,0,0,.068-.022.145.145,0,0,0,.019-.088Zm0-.212h.174v.142H-.82Z" transform="translate(0.937 21.281)" fill="#09333f"/>
      </g>
      <g id="Groupe_151" data-name="Groupe 151" transform="translate(81.268 84.912)">
        <path id="Tracé_158" data-name="Tracé 158" d="M1.787-15.4v.05H1.38a.129.129,0,0,0,.044.092.164.164,0,0,0,.106.031.409.409,0,0,0,.112-.016.593.593,0,0,0,.118-.049v.134a.733.733,0,0,1-.123.035.639.639,0,0,1-.123.012.328.328,0,0,1-.23-.075A.271.271,0,0,1,1.2-15.4a.274.274,0,0,1,.08-.209.307.307,0,0,1,.221-.077.277.277,0,0,1,.205.078.279.279,0,0,1,.077.206Zm-.179-.058a.11.11,0,0,0-.029-.079.1.1,0,0,0-.075-.031.118.118,0,0,0-.082.028.13.13,0,0,0-.039.082Z" transform="translate(-1.203 15.688)" fill="#09333f"/>
      </g>
      <g id="Groupe_152" data-name="Groupe 152" transform="translate(81.942 84.912)">
        <path id="Tracé_159" data-name="Tracé 159" d="M1.683-15.657v.141a.27.27,0,0,0-.071-.036.235.235,0,0,0-.074-.012.15.15,0,0,0-.114.043.164.164,0,0,0-.041.119.165.165,0,0,0,.041.119.151.151,0,0,0,.114.042.253.253,0,0,0,.077-.012.228.228,0,0,0,.068-.036v.142a.47.47,0,0,1-.083.022.463.463,0,0,1-.084.008.33.33,0,0,1-.23-.075A.269.269,0,0,1,1.2-15.4a.27.27,0,0,1,.083-.21.331.331,0,0,1,.23-.075.463.463,0,0,1,.084.008.464.464,0,0,1,.083.023Z" transform="translate(-1.203 15.687)" fill="#09333f"/>
      </g>
      <g id="Groupe_153" data-name="Groupe 153" transform="translate(82.502 84.772)">
        <path id="Tracé_160" data-name="Tracé 160" d="M.635-19.656v.154H.814v.124H.635v.231A.067.067,0,0,0,.65-19.1a.093.093,0,0,0,.059.013H.8v.124H.65A.2.2,0,0,1,.5-19a.2.2,0,0,1-.043-.146v-.231H.375V-19.5H.461v-.154Z" transform="translate(-0.375 19.656)" fill="#09333f"/>
      </g>
    </g>
  </g>
</svg>
