<svg xmlns="http://www.w3.org/2000/svg" xmlns:xlink="http://www.w3.org/1999/xlink" width="20.581" height="20.404" viewBox="0 0 20.581 20.404">
  <defs>
    <clipPath id="clip-path">
      <rect x="47" y="18" width="20.581" height="20.404" fill="none"/>
    </clipPath>
  </defs>
  <g id="tel" transform="translate(-47 -18)" clip-path="url(#clip-path)" style="isolation: isolate">
    <g id="noun-phone-5341215" transform="translate(-25.984 -93.043)">
      <path id="Tracé_81" data-name="Tracé 81" d="M194.933,124.079c-1.106,1.106-2.245,1.046-2.7.719a15.1,15.1,0,0,1-3.968-3.962c-.318-.455-.388-1.59.719-2.7,1.625-1.628-2.544-7.23-4.96-5.952-1.685.893-2.194,4.092-1.984,4.96a18.356,18.356,0,0,0,13.885,13.885c.868.21,4.067-.3,4.96-1.984,1.278-2.423-4.324-6.584-5.952-4.966Z" transform="translate(-108.579)" fill="#09333f"/>
      <g id="Groupe_77" data-name="Groupe 77" transform="translate(70.58 134.089)">
        <path id="Tracé_82" data-name="Tracé 82" d="M2.378-19.665a.755.755,0,0,1-.172.064.774.774,0,0,1-.186.022.636.636,0,0,1-.459-.161.579.579,0,0,1-.169-.439.578.578,0,0,1,.169-.439.635.635,0,0,1,.459-.162.774.774,0,0,1,.186.022.755.755,0,0,1,.172.064v.24a.682.682,0,0,0-.164-.082.541.541,0,0,0-.17-.027.319.319,0,0,0-.251.1.408.408,0,0,0-.091.282.409.409,0,0,0,.091.282.319.319,0,0,0,.251.1.554.554,0,0,0,.17-.026.663.663,0,0,0,.164-.083Z" transform="translate(-1.391 20.781)" fill="#09333f"/>
      </g>
      <g id="Groupe_78" data-name="Groupe 78" transform="translate(71.802 134.378)">
        <path id="Tracé_83" data-name="Tracé 83" d="M3-15.429a.384.384,0,0,0-.074-.025.3.3,0,0,0-.072-.009.2.2,0,0,0-.165.069.3.3,0,0,0-.058.2v.4H2.359v-.869h.278v.143a.353.353,0,0,1,.122-.124.331.331,0,0,1,.167-.04l.03,0,.048,0Z" transform="translate(-2.359 15.687)" fill="#09333f"/>
      </g>
      <g id="Groupe_79" data-name="Groupe 79" transform="translate(72.52 134.378)">
        <path id="Tracé_84" data-name="Tracé 84" d="M2.137-15.234v.08h-.65a.207.207,0,0,0,.071.146.262.262,0,0,0,.169.049.654.654,0,0,0,.179-.026.949.949,0,0,0,.189-.079v.214a1.171,1.171,0,0,1-.2.056,1.022,1.022,0,0,1-.2.02.525.525,0,0,1-.367-.12.433.433,0,0,1-.13-.336.438.438,0,0,1,.129-.334.491.491,0,0,1,.353-.122.442.442,0,0,1,.328.124.446.446,0,0,1,.123.329Zm-.286-.092a.176.176,0,0,0-.046-.127.159.159,0,0,0-.121-.049.189.189,0,0,0-.131.045.208.208,0,0,0-.063.13Z" transform="translate(-1.203 15.688)" fill="#09333f"/>
      </g>
      <g id="Groupe_80" data-name="Groupe 80" transform="translate(73.598 134.378)">
        <path id="Tracé_85" data-name="Tracé 85" d="M1.658-15.188a.239.239,0,0,0-.131.029.1.1,0,0,0-.043.087.1.1,0,0,0,.035.083.149.149,0,0,0,.1.029.175.175,0,0,0,.132-.056.2.2,0,0,0,.054-.141v-.032Zm.424-.1v.5H1.8v-.129a.359.359,0,0,1-.126.115.376.376,0,0,1-.17.035.309.309,0,0,1-.219-.078.267.267,0,0,1-.084-.2.251.251,0,0,1,.1-.224.6.6,0,0,1,.331-.072H1.8v-.022a.1.1,0,0,0-.052-.1.33.33,0,0,0-.162-.031.747.747,0,0,0-.167.018.575.575,0,0,0-.142.053v-.212a1.691,1.691,0,0,1,.178-.033,1.458,1.458,0,0,1,.181-.012.5.5,0,0,1,.339.093.384.384,0,0,1,.1.3Z" transform="translate(-1.203 15.688)" fill="#09333f"/>
      </g>
      <g id="Groupe_81" data-name="Groupe 81" transform="translate(74.624 134.152)">
        <path id="Tracé_86" data-name="Tracé 86" d="M.791-19.656v.247h.287v.2H.791v.369a.107.107,0,0,0,.024.082.149.149,0,0,0,.095.021h.143v.2H.815a.326.326,0,0,1-.234-.068.325.325,0,0,1-.068-.233v-.369H.375v-.2H.512v-.247Z" transform="translate(-0.375 19.656)" fill="#09333f"/>
      </g>
      <g id="Groupe_82" data-name="Groupe 82" transform="translate(74.784 134.378)">
        <path id="Tracé_87" data-name="Tracé 87" d="M2.137-15.234v.08h-.65a.207.207,0,0,0,.071.146.262.262,0,0,0,.169.049.654.654,0,0,0,.179-.026.949.949,0,0,0,.189-.079v.214a1.171,1.171,0,0,1-.2.056,1.022,1.022,0,0,1-.2.02.525.525,0,0,1-.367-.12.433.433,0,0,1-.13-.336.438.438,0,0,1,.129-.334.491.491,0,0,1,.353-.122.442.442,0,0,1,.328.124.446.446,0,0,1,.123.329Zm-.286-.092a.176.176,0,0,0-.046-.127.159.159,0,0,0-.121-.049.189.189,0,0,0-.131.045.208.208,0,0,0-.063.13Z" transform="translate(-1.203 15.688)" fill="#09333f"/>
      </g>
      <g id="Groupe_83" data-name="Groupe 83" transform="translate(75.723 134.06)">
        <path id="Tracé_88" data-name="Tracé 88" d="M1.919-20.815v-.466H2.2v1.208H1.919V-20.2a.366.366,0,0,1-.126.113.349.349,0,0,1-.161.035.323.323,0,0,1-.263-.128.506.506,0,0,1-.1-.328.507.507,0,0,1,.1-.329.323.323,0,0,1,.263-.128.339.339,0,0,1,.16.036.385.385,0,0,1,.127.112Zm-.183.563a.158.158,0,0,0,.136-.065.324.324,0,0,0,.047-.19.32.32,0,0,0-.047-.189.157.157,0,0,0-.136-.066A.157.157,0,0,0,1.6-20.7a.319.319,0,0,0-.047.189.322.322,0,0,0,.047.19A.157.157,0,0,0,1.736-20.252Z" transform="translate(-1.266 21.281)" fill="#09333f"/>
      </g>
      <g id="Groupe_84" data-name="Groupe 84" transform="translate(77.245 134.06)">
        <path id="Tracé_89" data-name="Tracé 89" d="M2.822-20.252a.158.158,0,0,0,.137-.065.324.324,0,0,0,.047-.19.32.32,0,0,0-.047-.189.158.158,0,0,0-.137-.066.16.16,0,0,0-.138.066.321.321,0,0,0-.047.189.32.32,0,0,0,.047.189.159.159,0,0,0,.138.066Zm-.185-.563a.394.394,0,0,1,.127-.112.344.344,0,0,1,.161-.036.325.325,0,0,1,.264.128.509.509,0,0,1,.1.329.507.507,0,0,1-.1.328.325.325,0,0,1-.264.128.352.352,0,0,1-.161-.035.384.384,0,0,1-.127-.113v.126H2.359v-1.208h.278Z" transform="translate(-2.359 21.281)" fill="#09333f"/>
      </g>
      <g id="Groupe_85" data-name="Groupe 85" transform="translate(78.131 134.399)">
        <path id="Tracé_90" data-name="Tracé 90" d="M.344-15.312H.621l.234.59.2-.59h.278l-.365.952a.464.464,0,0,1-.129.2.3.3,0,0,1-.193.059H.483v-.183H.57a.18.18,0,0,0,.1-.023.145.145,0,0,0,.051-.08l.008-.024Z" transform="translate(-0.344 15.312)" fill="#09333f"/>
      </g>
      <g id="Groupe_86" data-name="Groupe 86" transform="translate(79.612 134.11)">
        <path id="Tracé_91" data-name="Tracé 91" d="M2.578-20.406h.3v.422l.431-.422h.347l-.558.548.616.61H3.337L2.876-19.7v.457h-.3Z" transform="translate(-2.578 20.406)" fill="#09333f"/>
      </g>
      <g id="Groupe_87" data-name="Groupe 87" transform="translate(80.627 134.378)">
        <path id="Tracé_92" data-name="Tracé 92" d="M1.658-15.188a.239.239,0,0,0-.131.029.1.1,0,0,0-.043.087.1.1,0,0,0,.035.083.149.149,0,0,0,.1.029.175.175,0,0,0,.132-.056.2.2,0,0,0,.054-.141v-.032Zm.424-.1v.5H1.8v-.129a.359.359,0,0,1-.126.115.376.376,0,0,1-.17.035.309.309,0,0,1-.219-.078.267.267,0,0,1-.084-.2.251.251,0,0,1,.1-.224.6.6,0,0,1,.331-.072H1.8v-.022a.1.1,0,0,0-.052-.1.33.33,0,0,0-.162-.031.747.747,0,0,0-.167.018.575.575,0,0,0-.142.053v-.212a1.691,1.691,0,0,1,.178-.033,1.458,1.458,0,0,1,.181-.012.5.5,0,0,1,.339.093.384.384,0,0,1,.1.3Z" transform="translate(-1.203 15.688)" fill="#09333f"/>
      </g>
      <g id="Groupe_88" data-name="Groupe 88" transform="translate(81.529 134.152)">
        <path id="Tracé_93" data-name="Tracé 93" d="M.791-19.656v.247h.287v.2H.791v.369a.107.107,0,0,0,.024.082.149.149,0,0,0,.095.021h.143v.2H.815a.326.326,0,0,1-.234-.068.325.325,0,0,1-.068-.233v-.369H.375v-.2H.512v-.247Z" transform="translate(-0.375 19.656)" fill="#09333f"/>
      </g>
      <g id="Groupe_89" data-name="Groupe 89" transform="translate(82.218 134.378)">
        <path id="Tracé_94" data-name="Tracé 94" d="M1.658-15.188a.239.239,0,0,0-.131.029.1.1,0,0,0-.043.087.1.1,0,0,0,.035.083.149.149,0,0,0,.1.029.175.175,0,0,0,.132-.056.2.2,0,0,0,.054-.141v-.032Zm.424-.1v.5H1.8v-.129a.359.359,0,0,1-.126.115.376.376,0,0,1-.17.035.309.309,0,0,1-.219-.078.267.267,0,0,1-.084-.2.251.251,0,0,1,.1-.224.6.6,0,0,1,.331-.072H1.8v-.022a.1.1,0,0,0-.052-.1.33.33,0,0,0-.162-.031.747.747,0,0,0-.167.018.575.575,0,0,0-.142.053v-.212a1.691,1.691,0,0,1,.178-.033,1.458,1.458,0,0,1,.181-.012.5.5,0,0,1,.339.093.384.384,0,0,1,.1.3Z" transform="translate(-1.203 15.688)" fill="#09333f"/>
      </g>
      <g id="Groupe_90" data-name="Groupe 90" transform="translate(83.224 134.378)">
        <path id="Tracé_95" data-name="Tracé 95" d="M3-15.429a.384.384,0,0,0-.074-.025.3.3,0,0,0-.072-.009.2.2,0,0,0-.165.069.3.3,0,0,0-.058.2v.4H2.359v-.869h.278v.143a.353.353,0,0,1,.122-.124.331.331,0,0,1,.167-.04l.03,0,.048,0Z" transform="translate(-2.359 15.687)" fill="#09333f"/>
      </g>
      <g id="Groupe_91" data-name="Groupe 91" transform="translate(83.933 134.06)">
        <path id="Tracé_96" data-name="Tracé 96" d="M2.359-20.942h.278v.869H2.359Zm0-.339h.278v.227H2.359Z" transform="translate(-2.359 21.281)" fill="#09333f"/>
      </g>
      <g id="Groupe_92" data-name="Groupe 92" transform="translate(84.361 134.378)">
        <path id="Tracé_97" data-name="Tracé 97" d="M3.233-15.326v.53H2.954V-15.2a1.487,1.487,0,0,0-.005-.155.167.167,0,0,0-.018-.063.113.113,0,0,0-.044-.042.13.13,0,0,0-.063-.015.161.161,0,0,0-.137.067.3.3,0,0,0-.05.185v.428H2.359v-.869h.278v.127a.444.444,0,0,1,.133-.112.338.338,0,0,1,.156-.036.282.282,0,0,1,.229.093.405.405,0,0,1,.078.268Z" transform="translate(-2.359 15.687)" fill="#09333f"/>
      </g>
      <g id="Groupe_93" data-name="Groupe 93" transform="translate(85.286 134.378)">
        <path id="Tracé_98" data-name="Tracé 98" d="M1.658-15.188a.239.239,0,0,0-.131.029.1.1,0,0,0-.043.087.1.1,0,0,0,.035.083.149.149,0,0,0,.1.029.175.175,0,0,0,.132-.056.2.2,0,0,0,.054-.141v-.032Zm.424-.1v.5H1.8v-.129a.359.359,0,0,1-.126.115.376.376,0,0,1-.17.035.309.309,0,0,1-.219-.078.267.267,0,0,1-.084-.2.251.251,0,0,1,.1-.224.6.6,0,0,1,.331-.072H1.8v-.022a.1.1,0,0,0-.052-.1.33.33,0,0,0-.162-.031.747.747,0,0,0-.167.018.575.575,0,0,0-.142.053v-.212a1.691,1.691,0,0,1,.178-.033,1.458,1.458,0,0,1,.181-.012.5.5,0,0,1,.339.093.384.384,0,0,1,.1.3Z" transform="translate(-1.203 15.688)" fill="#09333f"/>
      </g>
      <g id="Groupe_94" data-name="Groupe 94" transform="translate(86.741 134.11)">
        <path id="Tracé_99" data-name="Tracé 99" d="M2.578-20.406h.3v.422l.431-.422h.347l-.558.548.616.61H3.337L2.876-19.7v.457h-.3Z" transform="translate(-2.578 20.406)" fill="#09333f"/>
      </g>
      <g id="Groupe_95" data-name="Groupe 95" transform="translate(87.767 134.038)">
        <path id="Tracé_100" data-name="Tracé 100" d="M1.658-20.833a.239.239,0,0,0-.131.029.1.1,0,0,0-.043.087.1.1,0,0,0,.035.083.149.149,0,0,0,.1.029.175.175,0,0,0,.132-.056A.2.2,0,0,0,1.8-20.8v-.032Zm.424-.1v.5H1.8v-.129a.359.359,0,0,1-.126.115.376.376,0,0,1-.17.035.309.309,0,0,1-.219-.078.267.267,0,0,1-.084-.2.251.251,0,0,1,.1-.224A.6.6,0,0,1,1.639-21H1.8v-.022a.1.1,0,0,0-.052-.1.33.33,0,0,0-.162-.031.747.747,0,0,0-.167.018.575.575,0,0,0-.142.053v-.212a1.691,1.691,0,0,1,.178-.033,1.458,1.458,0,0,1,.181-.012.5.5,0,0,1,.339.093.384.384,0,0,1,.1.3Zm-.65-.735h.183v.191H1.432Zm.307,0h.183v.191H1.739Z" transform="translate(-1.203 21.672)" fill="#09333f"/>
      </g>
      <g id="Groupe_96" data-name="Groupe 96" transform="translate(88.78 134.378)">
        <path id="Tracé_101" data-name="Tracé 101" d="M3-15.429a.384.384,0,0,0-.074-.025.3.3,0,0,0-.072-.009.2.2,0,0,0-.165.069.3.3,0,0,0-.058.2v.4H2.359v-.869h.278v.143a.353.353,0,0,1,.122-.124.331.331,0,0,1,.167-.04l.03,0,.048,0Z" transform="translate(-2.359 15.687)" fill="#09333f"/>
      </g>
      <g id="Groupe_97" data-name="Groupe 97" transform="translate(88.864 134.378)">
        <path id="Tracé_102" data-name="Tracé 102" d="M3.233-15.326v.53H2.954V-15.2a1.487,1.487,0,0,0-.005-.155.167.167,0,0,0-.018-.063.113.113,0,0,0-.044-.042.13.13,0,0,0-.063-.015.161.161,0,0,0-.137.067.3.3,0,0,0-.05.185v.428H2.359v-.869h.278v.127a.444.444,0,0,1,.133-.112.338.338,0,0,1,.156-.036.282.282,0,0,1,.229.093.405.405,0,0,1,.078.268Z" transform="translate(-2.359 15.687)" fill="#09333f"/>
      </g>
      <g id="Groupe_98" data-name="Groupe 98" transform="translate(89.93 134.378)">
        <path id="Tracé_103" data-name="Tracé 103" d="M2.137-15.234v.08h-.65a.207.207,0,0,0,.071.146.262.262,0,0,0,.169.049.654.654,0,0,0,.179-.026.949.949,0,0,0,.189-.079v.214a1.171,1.171,0,0,1-.2.056,1.022,1.022,0,0,1-.2.02.525.525,0,0,1-.367-.12.433.433,0,0,1-.13-.336.438.438,0,0,1,.129-.334.491.491,0,0,1,.353-.122.442.442,0,0,1,.328.124.446.446,0,0,1,.123.329Zm-.286-.092a.176.176,0,0,0-.046-.127.159.159,0,0,0-.121-.049.189.189,0,0,0-.131.045.208.208,0,0,0-.063.13Z" transform="translate(-1.203 15.688)" fill="#09333f"/>
      </g>
      <g id="Groupe_99" data-name="Groupe 99" transform="translate(91.074 134.06)">
        <path id="Tracé_104" data-name="Tracé 104" d="M2.359-21.281h.278v.658l.319-.319h.323l-.424.4.458.47H2.976l-.339-.363v.363H2.359Z" transform="translate(-2.359 21.281)" fill="#09333f"/>
      </g>
      <g id="Groupe_100" data-name="Groupe 100" transform="translate(92.121 134.399)">
        <path id="Tracé_105" data-name="Tracé 105" d="M2.188-14.782v-.53h.279v.087c0,.047,0,.106,0,.177s0,.118,0,.142a1.494,1.494,0,0,0,.005.152.175.175,0,0,0,.019.067.122.122,0,0,0,.045.043.134.134,0,0,0,.063.014.161.161,0,0,0,.137-.067.3.3,0,0,0,.05-.185v-.429h.278v.869H2.784v-.126a.437.437,0,0,1-.133.113.341.341,0,0,1-.155.035.284.284,0,0,1-.229-.092.4.4,0,0,1-.079-.269Z" transform="translate(-2.188 15.313)" fill="#09333f"/>
      </g>
      <g id="Groupe_101" data-name="Groupe 101" transform="translate(93.263 134.06)">
        <path id="Tracé_106" data-name="Tracé 106" d="M2.359-21.281h.278v1.208H2.359Z" transform="translate(-2.359 21.281)" fill="#09333f"/>
      </g>
      <g id="Groupe_102" data-name="Groupe 102" transform="translate(93.808 134.06)">
        <path id="Tracé_107" data-name="Tracé 107" d="M2.359-21.281h.278v1.208H2.359Z" transform="translate(-2.359 21.281)" fill="#09333f"/>
      </g>
      <g id="Groupe_103" data-name="Groupe 103" transform="translate(70.531 135.65)">
        <path id="Tracé_108" data-name="Tracé 108" d="M1.207-21.281v.183H1.053a.125.125,0,0,0-.083.021A.1.1,0,0,0,.948-21v.06h.238v.2H.948v.671H.67v-.671H.531v-.2H.67V-21a.263.263,0,0,1,.079-.21.369.369,0,0,1,.246-.068Z" transform="translate(-0.531 21.281)" fill="#09333f"/>
      </g>
      <g id="Groupe_104" data-name="Groupe 104" transform="translate(71.327 135.967)">
        <path id="Tracé_109" data-name="Tracé 109" d="M3-15.429a.384.384,0,0,0-.074-.025.3.3,0,0,0-.072-.009.2.2,0,0,0-.165.069.3.3,0,0,0-.058.2v.4H2.359v-.869h.278v.143a.353.353,0,0,1,.122-.124.331.331,0,0,1,.167-.04l.03,0,.048,0Z" transform="translate(-2.359 15.687)" fill="#09333f"/>
      </g>
      <g id="Groupe_105" data-name="Groupe 105" transform="translate(72.045 135.967)">
        <path id="Tracé_110" data-name="Tracé 110" d="M1.682-15.489a.164.164,0,0,0-.141.067.32.32,0,0,0-.049.192.32.32,0,0,0,.049.192.164.164,0,0,0,.141.066.16.16,0,0,0,.138-.066.322.322,0,0,0,.049-.192.322.322,0,0,0-.049-.192A.16.16,0,0,0,1.682-15.489Zm0-.2a.484.484,0,0,1,.35.122.443.443,0,0,1,.126.335.444.444,0,0,1-.126.335.486.486,0,0,1-.35.121A.49.49,0,0,1,1.33-14.9a.442.442,0,0,1-.127-.335.44.44,0,0,1,.127-.335A.488.488,0,0,1,1.682-15.688Z" transform="translate(-1.203 15.688)" fill="#09333f"/>
      </g>
      <g id="Groupe_106" data-name="Groupe 106" transform="translate(73.201 135.967)">
        <path id="Tracé_111" data-name="Tracé 111" d="M3.135-15.522a.377.377,0,0,1,.125-.123.31.31,0,0,1,.16-.043.281.281,0,0,1,.228.093.4.4,0,0,1,.079.268v.53H3.448v-.474c0-.008,0-.018,0-.032a.247.247,0,0,0-.028-.133.1.1,0,0,0-.087-.042.138.138,0,0,0-.122.066.341.341,0,0,0-.044.188v.427H2.888v-.453a.432.432,0,0,0-.025-.185.1.1,0,0,0-.089-.042.139.139,0,0,0-.123.066.335.335,0,0,0-.043.187v.428H2.328v-.869h.279v.127a.361.361,0,0,1,.117-.111.294.294,0,0,1,.146-.037.3.3,0,0,1,.16.043.274.274,0,0,1,.1.122Z" transform="translate(-2.328 15.688)" fill="#09333f"/>
      </g>
      <g id="Groupe_107" data-name="Groupe 107" transform="translate(74.676 135.742)">
        <path id="Tracé_112" data-name="Tracé 112" d="M.791-19.656v.247h.287v.2H.791v.369a.107.107,0,0,0,.024.082.149.149,0,0,0,.095.021h.143v.2H.815a.326.326,0,0,1-.234-.068.325.325,0,0,1-.068-.233v-.369H.375v-.2H.512v-.247Z" transform="translate(-0.375 19.656)" fill="#09333f"/>
      </g>
      <g id="Groupe_108" data-name="Groupe 108" transform="translate(75.429 135.65)">
        <path id="Tracé_113" data-name="Tracé 113" d="M3.233-20.6v.53H2.954v-.4a1.51,1.51,0,0,0-.005-.157.167.167,0,0,0-.018-.063.113.113,0,0,0-.044-.042.13.13,0,0,0-.063-.015.16.16,0,0,0-.137.067.3.3,0,0,0-.05.185v.428H2.359v-1.208h.278v.466a.444.444,0,0,1,.133-.112.338.338,0,0,1,.156-.036.282.282,0,0,1,.229.093.405.405,0,0,1,.078.268Z" transform="translate(-2.359 21.281)" fill="#09333f"/>
      </g>
      <g id="Groupe_109" data-name="Groupe 109" transform="translate(76.353 135.967)">
        <path id="Tracé_114" data-name="Tracé 114" d="M2.137-15.234v.08h-.65a.207.207,0,0,0,.071.146.262.262,0,0,0,.169.049.654.654,0,0,0,.179-.026.949.949,0,0,0,.189-.079v.214a1.171,1.171,0,0,1-.2.056,1.022,1.022,0,0,1-.2.02.525.525,0,0,1-.367-.12.433.433,0,0,1-.13-.336.438.438,0,0,1,.129-.334.491.491,0,0,1,.353-.122.442.442,0,0,1,.328.124.446.446,0,0,1,.123.329Zm-.286-.092a.176.176,0,0,0-.046-.127.159.159,0,0,0-.121-.049.189.189,0,0,0-.131.045.208.208,0,0,0-.063.13Z" transform="translate(-1.203 15.688)" fill="#09333f"/>
      </g>
      <g id="Groupe_110" data-name="Groupe 110" transform="translate(77.832 135.7)">
        <path id="Tracé_115" data-name="Tracé 115" d="M2.578-20.406h.334l.421.795v-.795h.283v1.159H3.282l-.421-.795v.795H2.578Z" transform="translate(-2.578 20.406)" fill="#09333f"/>
      </g>
      <g id="Groupe_111" data-name="Groupe 111" transform="translate(78.923 135.967)">
        <path id="Tracé_116" data-name="Tracé 116" d="M1.682-15.489a.164.164,0,0,0-.141.067.32.32,0,0,0-.049.192.32.32,0,0,0,.049.192.164.164,0,0,0,.141.066.16.16,0,0,0,.138-.066.322.322,0,0,0,.049-.192.322.322,0,0,0-.049-.192A.16.16,0,0,0,1.682-15.489Zm0-.2a.484.484,0,0,1,.35.122.443.443,0,0,1,.126.335.444.444,0,0,1-.126.335.486.486,0,0,1-.35.121A.49.49,0,0,1,1.33-14.9a.442.442,0,0,1-.127-.335.44.44,0,0,1,.127-.335A.488.488,0,0,1,1.682-15.688Z" transform="translate(-1.203 15.688)" fill="#09333f"/>
      </g>
      <g id="Groupe_112" data-name="Groupe 112" transform="translate(79.923 135.989)">
        <path id="Tracé_117" data-name="Tracé 117" d="M2.188-14.782v-.53h.279v.087c0,.047,0,.106,0,.177s0,.118,0,.142a1.494,1.494,0,0,0,.005.152.175.175,0,0,0,.019.067.122.122,0,0,0,.045.043.134.134,0,0,0,.063.014.161.161,0,0,0,.137-.067.3.3,0,0,0,.05-.185v-.429h.278v.869H2.784v-.126a.437.437,0,0,1-.133.113.341.341,0,0,1-.155.035.284.284,0,0,1-.229-.092.4.4,0,0,1-.079-.269Z" transform="translate(-2.188 15.313)" fill="#09333f"/>
      </g>
      <g id="Groupe_113" data-name="Groupe 113" transform="translate(80.914 135.967)">
        <path id="Tracé_118" data-name="Tracé 118" d="M3.233-15.326v.53H2.954V-15.2a1.487,1.487,0,0,0-.005-.155.167.167,0,0,0-.018-.063.113.113,0,0,0-.044-.042.13.13,0,0,0-.063-.015.161.161,0,0,0-.137.067.3.3,0,0,0-.05.185v.428H2.359v-.869h.278v.127a.444.444,0,0,1,.133-.112.338.338,0,0,1,.156-.036.282.282,0,0,1,.229.093.405.405,0,0,1,.078.268Z" transform="translate(-2.359 15.687)" fill="#09333f"/>
      </g>
      <g id="Groupe_114" data-name="Groupe 114" transform="translate(82.383 135.7)">
        <path id="Tracé_119" data-name="Tracé 119" d="M2.578-20.406h.5a.516.516,0,0,1,.339.1.342.342,0,0,1,.119.279.344.344,0,0,1-.119.28.516.516,0,0,1-.339.1h-.2v.4h-.3Zm.3.216v.324h.166a.193.193,0,0,0,.134-.043.152.152,0,0,0,.048-.12.151.151,0,0,0-.048-.12.2.2,0,0,0-.134-.042Z" transform="translate(-2.578 20.406)" fill="#09333f"/>
      </g>
      <g id="Groupe_115" data-name="Groupe 115" transform="translate(83.406 135.967)">
        <path id="Tracé_120" data-name="Tracé 120" d="M3-15.429a.384.384,0,0,0-.074-.025.3.3,0,0,0-.072-.009.2.2,0,0,0-.165.069.3.3,0,0,0-.058.2v.4H2.359v-.869h.278v.143a.353.353,0,0,1,.122-.124.331.331,0,0,1,.167-.04l.03,0,.048,0Z" transform="translate(-2.359 15.687)" fill="#09333f"/>
      </g>
      <g id="Groupe_116" data-name="Groupe 116" transform="translate(84.006 135.967)">
        <path id="Tracé_121" data-name="Tracé 121" d="M1.682-15.489a.164.164,0,0,0-.141.067.32.32,0,0,0-.049.192.32.32,0,0,0,.049.192.164.164,0,0,0,.141.066.16.16,0,0,0,.138-.066.322.322,0,0,0,.049-.192.322.322,0,0,0-.049-.192A.16.16,0,0,0,1.682-15.489Zm0-.2a.484.484,0,0,1,.35.122.443.443,0,0,1,.126.335.444.444,0,0,1-.126.335.486.486,0,0,1-.35.121A.49.49,0,0,1,1.33-14.9a.442.442,0,0,1-.127-.335.44.44,0,0,1,.127-.335A.488.488,0,0,1,1.682-15.688Z" transform="translate(-1.203 15.688)" fill="#09333f"/>
      </g>
      <g id="Groupe_117" data-name="Groupe 117" transform="translate(84.889 135.65)">
        <path id="Tracé_122" data-name="Tracé 122" d="M-.75-20.942h.278v.853a.383.383,0,0,1-.084.267.311.311,0,0,1-.243.092H-.937v-.183h.049a.136.136,0,0,0,.108-.035.232.232,0,0,0,.03-.141Zm0-.339h.278v.227H-.75Z" transform="translate(0.937 21.281)" fill="#09333f"/>
      </g>
      <g id="Groupe_118" data-name="Groupe 118" transform="translate(85.429 135.967)">
        <path id="Tracé_123" data-name="Tracé 123" d="M2.137-15.234v.08h-.65a.207.207,0,0,0,.071.146.262.262,0,0,0,.169.049.654.654,0,0,0,.179-.026.949.949,0,0,0,.189-.079v.214a1.171,1.171,0,0,1-.2.056,1.022,1.022,0,0,1-.2.02.525.525,0,0,1-.367-.12.433.433,0,0,1-.13-.336.438.438,0,0,1,.129-.334.491.491,0,0,1,.353-.122.442.442,0,0,1,.328.124.446.446,0,0,1,.123.329Zm-.286-.092a.176.176,0,0,0-.046-.127.159.159,0,0,0-.121-.049.189.189,0,0,0-.131.045.208.208,0,0,0-.063.13Z" transform="translate(-1.203 15.688)" fill="#09333f"/>
      </g>
      <g id="Groupe_119" data-name="Groupe 119" transform="translate(86.38 135.967)">
        <path id="Tracé_124" data-name="Tracé 124" d="M1.971-15.638v.226a.432.432,0,0,0-.114-.058.376.376,0,0,0-.118-.019.24.24,0,0,0-.182.068.263.263,0,0,0-.065.19.264.264,0,0,0,.065.19.241.241,0,0,0,.182.067.4.4,0,0,0,.123-.019.364.364,0,0,0,.108-.058v.227a.752.752,0,0,1-.132.035.74.74,0,0,1-.135.012.528.528,0,0,1-.368-.121A.43.43,0,0,1,1.2-15.23a.432.432,0,0,1,.132-.336.529.529,0,0,1,.368-.121.74.74,0,0,1,.135.012.742.742,0,0,1,.132.036Z" transform="translate(-1.203 15.687)" fill="#09333f"/>
      </g>
      <g id="Groupe_120" data-name="Groupe 120" transform="translate(87.164 135.742)">
        <path id="Tracé_125" data-name="Tracé 125" d="M.791-19.656v.247h.287v.2H.791v.369a.107.107,0,0,0,.024.082.149.149,0,0,0,.095.021h.143v.2H.815a.326.326,0,0,1-.234-.068.325.325,0,0,1-.068-.233v-.369H.375v-.2H.512v-.247Z" transform="translate(-0.375 19.656)" fill="#09333f"/>
      </g>
    </g>
  </g>
</svg>
